<svg width="22" height="22" viewBox="0 0 22 22" fill="none" xmlns="http://www.w3.org/2000/svg">
<path d="M17.8752 14.6537C17.2586 13.9401 16.1047 12.8666 16.1047 9.35001C16.1047 6.67907 14.3657 4.54095 12.0209 4.01639V3.30001C12.0209 2.69261 11.5638 2.20001 11.0001 2.20001C10.4364 2.20001 9.97931 2.69261 9.97931 3.30001V4.01639C7.6345 4.54095 5.89552 6.67907 5.89552 9.35001C5.89552 12.8666 4.74163 13.9401 4.12495 14.6537C3.93343 14.8754 3.84852 15.1405 3.85012 15.4C3.85363 15.9638 4.26444 16.5 4.87474 16.5H17.1255C17.7358 16.5 18.1469 15.9638 18.1501 15.4C18.1517 15.1405 18.0668 14.8751 17.8752 14.6537ZM6.00565 14.85C6.68298 13.8885 7.42351 12.2949 7.42702 9.36995C7.42702 9.36307 7.42511 9.35689 7.42511 9.35001C7.42511 7.22357 9.02555 5.50001 11.0001 5.50001C12.9746 5.50001 14.5751 7.22357 14.5751 9.35001C14.5751 9.35689 14.5732 9.36307 14.5732 9.36995C14.5767 12.2953 15.3172 13.8889 15.9945 14.85H6.00565ZM11.0001 19.8C12.1275 19.8 13.042 18.8152 13.042 17.6H8.9582C8.9582 18.8152 9.8727 19.8 11.0001 19.8Z" fill="#7A7A7A"/>
<path d="M15.95 8.20001C17.7449 8.20001 19.2 6.74494 19.2 4.95001C19.2 3.15509 17.7449 1.70001 15.95 1.70001C14.155 1.70001 12.7 3.15509 12.7 4.95001C12.7 6.74494 14.155 8.20001 15.95 8.20001Z" fill="#FD7972" stroke="#F5F5F5"/>
</svg>
