<svg width="120" height="38" viewBox="0 0 120 38" fill="none" xmlns="http://www.w3.org/2000/svg">
<circle cx="15" cy="18" r="15" fill="#FFBC5D"/>
<path d="M47.434 25.114H53.414V28H43.794V9.852H47.434V25.114ZM62.1236 28.234C60.7369 28.234 59.4889 27.9307 58.3796 27.324C57.2703 26.7 56.3949 25.8247 55.7536 24.698C55.1296 23.5713 54.8176 22.2713 54.8176 20.798C54.8176 19.3247 55.1383 18.0247 55.7796 16.898C56.4383 15.7713 57.3309 14.9047 58.4576 14.298C59.5843 13.674 60.8409 13.362 62.2276 13.362C63.6143 13.362 64.8709 13.674 65.9976 14.298C67.1243 14.9047 68.0083 15.7713 68.6496 16.898C69.3083 18.0247 69.6376 19.3247 69.6376 20.798C69.6376 22.2713 69.2996 23.5713 68.6236 24.698C67.9649 25.8247 67.0636 26.7 65.9196 27.324C64.7929 27.9307 63.5276 28.234 62.1236 28.234ZM62.1236 25.062C62.7823 25.062 63.3976 24.906 63.9696 24.594C64.5589 24.2647 65.0269 23.7793 65.3736 23.138C65.7203 22.4967 65.8936 21.7167 65.8936 20.798C65.8936 19.4287 65.5296 18.38 64.8016 17.652C64.0909 16.9067 63.2156 16.534 62.1756 16.534C61.1356 16.534 60.2603 16.9067 59.5496 17.652C58.8563 18.38 58.5096 19.4287 58.5096 20.798C58.5096 22.1673 58.8476 23.2247 59.5236 23.97C60.2169 24.698 61.0836 25.062 62.1236 25.062ZM77.9497 13.362C79.0243 13.362 79.969 13.5787 80.7837 14.012C81.5983 14.428 82.2397 14.974 82.7077 15.65V13.596H86.3737V28.104C86.3737 29.4387 86.105 30.626 85.5677 31.666C85.0303 32.7233 84.2243 33.5553 83.1497 34.162C82.075 34.786 80.775 35.098 79.2497 35.098C77.2043 35.098 75.523 34.6213 74.2057 33.668C72.9057 32.7147 72.169 31.4147 71.9957 29.768H75.6097C75.8003 30.4267 76.2077 30.9467 76.8317 31.328C77.473 31.7267 78.2443 31.926 79.1457 31.926C80.203 31.926 81.061 31.6053 81.7197 30.964C82.3783 30.34 82.7077 29.3867 82.7077 28.104V25.868C82.2397 26.544 81.5897 27.1073 80.7577 27.558C79.943 28.0087 79.007 28.234 77.9497 28.234C76.7363 28.234 75.627 27.922 74.6217 27.298C73.6163 26.674 72.819 25.7987 72.2297 24.672C71.6577 23.528 71.3717 22.2193 71.3717 20.746C71.3717 19.29 71.6577 17.9987 72.2297 16.872C72.819 15.7453 73.6077 14.8787 74.5957 14.272C75.601 13.6653 76.719 13.362 77.9497 13.362ZM82.7077 20.798C82.7077 19.914 82.5343 19.16 82.1877 18.536C81.841 17.8947 81.373 17.4093 80.7837 17.08C80.1943 16.7333 79.5617 16.56 78.8857 16.56C78.2097 16.56 77.5857 16.7247 77.0137 17.054C76.4417 17.3833 75.9737 17.8687 75.6097 18.51C75.263 19.134 75.0897 19.8793 75.0897 20.746C75.0897 21.6127 75.263 22.3753 75.6097 23.034C75.9737 23.6753 76.4417 24.1693 77.0137 24.516C77.603 24.8627 78.227 25.036 78.8857 25.036C79.5617 25.036 80.1943 24.8713 80.7837 24.542C81.373 24.1953 81.841 23.71 82.1877 23.086C82.5343 22.4447 82.7077 21.682 82.7077 20.798ZM96.3248 28.234C94.9381 28.234 93.6901 27.9307 92.5808 27.324C91.4714 26.7 90.5961 25.8247 89.9548 24.698C89.3308 23.5713 89.0188 22.2713 89.0188 20.798C89.0188 19.3247 89.3394 18.0247 89.9808 16.898C90.6394 15.7713 91.5321 14.9047 92.6588 14.298C93.7854 13.674 95.0421 13.362 96.4288 13.362C97.8154 13.362 99.0721 13.674 100.199 14.298C101.325 14.9047 102.209 15.7713 102.851 16.898C103.509 18.0247 103.839 19.3247 103.839 20.798C103.839 22.2713 103.501 23.5713 102.825 24.698C102.166 25.8247 101.265 26.7 100.121 27.324C98.9941 27.9307 97.7288 28.234 96.3248 28.234ZM96.3248 25.062C96.9834 25.062 97.5988 24.906 98.1708 24.594C98.7601 24.2647 99.2281 23.7793 99.5748 23.138C99.9214 22.4967 100.095 21.7167 100.095 20.798C100.095 19.4287 99.7308 18.38 99.0028 17.652C98.2921 16.9067 97.4168 16.534 96.3768 16.534C95.3368 16.534 94.4614 16.9067 93.7508 17.652C93.0574 18.38 92.7108 19.4287 92.7108 20.798C92.7108 22.1673 93.0488 23.2247 93.7248 23.97C94.4181 24.698 95.2848 25.062 96.3248 25.062Z" fill="#3B3B3B"/>
</svg>
